<svg version="1.1" id="format-logos" xmlns="http://www.w3.org/2000/svg" xmlns:xlink="http://www.w3.org/1999/xlink" x="0px"
	 y="0px" viewBox="0 0 640 440" style="enable-background:new 0 0 640 440;" xml:space="preserve">

<g id="hang-time">
	<rect y="0" width="640" height="437.1"/>
	<path d="M179,192.1c0.1-4,0.3-8.5,0.3-13.5c0.1-5,0.2-10,0.3-15.2c0.1-5.1,0.3-9.6,0.5-13.3c1.1-0.1,2-0.1,2.9-0.1
		c0.8,0,1.7,0,2.6-0.1c0.9-0.1,1.9-0.1,3.1-0.2c1.1-0.1,2.5-0.1,4.2-0.1c0.5,4.3,0.8,8.8,0.9,13.4c0.1,4.6,0.3,9.2,0.5,13.6
		c0.1,4.4,0.2,8.5,0.2,12.4c0,3.8,0.1,7.1,0.5,9.8l29.7-2.1L226,50.6c-1.4-0.1-3.7-0.1-6.8-0.1c-3.2,0-6.7,0-10.4,0.1
		c-3.7,0.1-7.4,0.2-11.1,0.4c-3.7,0.2-6.5,0.3-8.7,0.5c0.3,6.7,0.7,14.3,1.1,22.6c0.5,8.4,0.7,16.5,0.7,24.4c0,1.9,0,3.8,0,5.5
		c0,1.8-0.1,3.5-0.2,5.3c-1.8,0-3.9,0.2-6.3,0.6c-2.4,0.4-4.3,0.5-5.8,0.3V98.7c0-8.2,0-16.5,0.1-25c0.1-8.5,0.1-16.1,0.1-22.8
		c-1.5,0.3-3,0.5-4.6,0.6c-1.5,0.1-3,0.2-4.6,0.3c-4.4,0.3-8.9,0.5-13.4,0.7c-4.5,0.2-8.9,0.5-13.4,0.9c0.3,6.1,0.7,13.1,1.1,21.1
		c0.5,8,0.9,16.4,1.4,25.3c0.5,8.9,0.9,18,1.4,27.3c0.5,9.3,0.9,18.5,1.3,27.3c0.4,8.9,0.7,17.3,0.9,25.3c0.2,8,0.3,15,0.3,21.1
		c4.7,0,9.7,0,14.9,0c5.2,0,10.1-0.3,14.5-0.9C178.8,198.7,178.9,196.2,179,192.1z"/>
	<path d="M275.2,109.8c0.8,2.4,1.6,4.9,2.3,7.5c0.7,2.6,1.3,5,1.7,7.3c0.5,2.3,0.7,3.9,0.7,4.9l-8.4,0.1c0-1.8,0.1-3.9,0.2-6.3
		c0.1-2.4,0.3-4.8,0.6-7.3c0.2-2.4,0.4-4.7,0.6-6.8c0.1-2.1,0.3-3.8,0.5-5.1C273.7,105.6,274.4,107.4,275.2,109.8z M314.8,134.8
		c-3.3-16.3-6.4-30.9-9.1-43.8c-2.7-12.9-5-23.7-6.8-32.1c-1.8-8.4-2.9-13.7-3.2-15.8c-0.9-0.1-2-0.1-3.3,0
		c-1.3,0.1-2.8,0.2-4.5,0.3c-2.7,0.2-5.9,0.4-9.4,0.8c-3.5,0.3-7,0.7-10.6,1c-3.6,0.3-7.1,0.7-10.5,1c-3.4,0.3-6.4,0.6-9,0.7
		c-0.6,2.9-1.2,8-1.8,15.2c-0.6,7.2-1.6,16.7-3,28.5c-1.4,11.8-3.3,26-5.8,42.7c-2.5,16.7-6,36-10.4,57.9c0.9,0.7,2.9,1.3,5.8,1.8
		c3,0.4,6.2,0.8,9.7,1c3.5,0.2,6.8,0.4,10,0.5c3.2,0.1,5.4,0.1,6.6,0c0.3-0.2,0.6-0.8,0.8-1.7c0.2-1,0.6-2.6,1-4.9
		c0.5-2.3,1-5.3,1.7-9.1c0.7-3.8,1.6-8.6,2.6-14.5c1.7-0.1,3.7-0.2,6-0.3c2.4-0.1,4.7-0.2,7-0.2c2.3-0.1,4.5-0.1,6.5-0.2
		c2.1-0.1,3.7-0.1,4.9-0.2c1.2,4.1,2.9,8.9,4.9,14.6c2.1,5.6,3.8,10.7,5.1,15.3c0.1,0.1,1,0,2.5-0.5c1.5-0.5,3.5-1.2,5.9-2
		c2.4-0.8,5.1-1.7,8-2.6c2.9-0.9,5.7-1.7,8.4-2.4C321.6,168,318.2,151.1,314.8,134.8z"/>
	<path d="M401.8,178.6c4.6-0.5,9.6-1,15.1-1.5c0.9-20.3,1.7-37.7,2.4-52.5c0.7-14.7,1.3-27.3,1.8-37.6c0.5-10.4,0.9-18.9,1.3-25.5
		c0.3-6.6,0.6-11.8,0.8-15.7c0.2-3.9,0.4-6.7,0.5-8.4c0.1-1.8,0.1-3,0.1-3.6c-2.1-0.2-5.2-0.2-9.2-0.2c-4,0-8.1,0.2-12.2,0.5
		c-3.2,0.2-6.1,0.5-8.8,0.7c-2.7,0.3-4.6,0.5-5.8,0.8v7.7c0,10.9,0.1,20.1,0.2,27.5c0.1,7.4,0.3,13.4,0.5,17.9
		c0.1,4.5,0.2,7.7,0.2,9.7c0,2-0.2,3-0.7,3.1l-21.2-59.6c-4.3,0.6-8,1.2-11.1,1.6c-3.1,0.5-6.1,0.9-9,1.3c-2.9,0.4-5.9,0.9-9,1.3
		c-3.1,0.5-6.8,0.9-11.1,1.4c0.8,10.4,1.4,21.7,1.8,33.9c0.5,12.2,0.9,24.7,1.3,37.5c0.4,12.8,0.8,25.5,1.4,38.3
		c0.5,12.7,1.3,24.8,2.4,36.3l27.4-3.1c0-4.3-0.1-9.6-0.2-15.9c-0.2-6.2-0.3-12.7-0.6-19.3c-0.2-6.6-0.5-13-0.8-19.1
		c-0.3-6.1-0.5-11.1-0.7-15.1c0.5,2.2,1.5,5.4,3.2,9.6c1.7,4.2,3.8,9,6.3,14.3c2.5,5.4,5.3,11.1,8.3,17.2c3,6.1,6.1,12.2,9.1,18.2
		C391.7,179.7,397.2,179,401.8,178.6z"/>
	<path d="M509.3,171c1.1-1.9,1.5-4,1.4-6.2c0.1-1.3,0.2-2.5,0.2-3.7c0-1.2,0-2.4,0-3.7c0-4.3-0.1-8.7-0.3-13.1
		c-0.2-4.4-0.3-8.4-0.3-12.1c1.2-0.4,2.2-0.7,2.9-0.9c0.7-0.2,1.3-0.4,1.7-0.5c0.5-0.1,0.9-0.2,1.5-0.3c0.5-0.1,1.3-0.4,2.2-1
		l-2.1-28.7c0-0.2-1.1,0-3.2,0.3c-2.1,0.4-4.8,0.9-8,1.5c-3.2,0.6-6.7,1.4-10.6,2.2c-3.9,0.8-7.5,1.7-11,2.6c-3.4,0.9-6.4,1.7-9,2.4
		c-2.6,0.7-4.3,1.3-5,1.7c0,1.1,0.1,3,0.3,5.6s0.6,5.4,1,8.2c0.5,2.9,0.9,5.6,1.5,8.3c0.5,2.7,1.1,4.6,1.7,5.7
		c1.2-0.1,2.4-0.4,3.7-0.9c1.2-0.5,2.5-0.6,3.9-0.4c0.5,0.9,0.8,2.2,0.9,3.9c0.1,1.7,0.1,3.4-0.2,5.3c-0.3,1.9-0.9,3.5-1.7,4.9
		c-0.8,1.4-1.9,2.3-3.3,2.5c-2.9,0.5-5.4-0.6-7.5-3.3c-2.1-2.7-4-5.9-5.5-9.6c-1.5-3.7-2.7-7.3-3.4-10.9c-0.8-3.6-1.2-6.1-1.4-7.4
		c-0.2-1.6-0.3-3.6-0.5-6c-0.2-2.4-0.2-5-0.2-7.9c0-4,0.2-8.3,0.7-12.8c0.5-4.5,1.3-8.7,2.4-12.5c1.1-3.8,2.8-7.2,4.9-10
		c2.1-2.8,4.9-4.5,8.2-5.3c0.1,0,0.6,0,1.4,0.1c0.8,0.1,1.6,0.7,2.4,1.8c0.8,1.1,1.6,2.7,2.3,4.8c0.7,2.1,1,5.2,1,9.2
		c1.8-0.3,4-0.6,6.6-1.1c2.6-0.4,5.2-0.8,8-1.3c2.7-0.4,5.4-0.9,7.9-1.4c2.5-0.5,4.7-1,6.5-1.7c0.1-5.6-0.3-11.6-1.4-17.8
		c-1.1-6.3-3-11.9-5.7-16.8c-2.7-4.9-6.5-8.8-11.3-11.6c-4.8-2.8-10.9-3.6-18.4-2.4c-7.2,1.1-13.7,4-19.7,8.7
		c-6,4.7-11.2,10.4-15.5,17.3c-4.3,6.9-7.7,14.5-10.2,22.9c-2.4,8.4-3.7,17-3.7,25.6c0,1.3,0,2.6,0.1,4c0.1,1.4,0.2,2.7,0.3,3.9
		c0.5,9.9,1.9,19.4,4.3,28.4c2.4,9,5.9,16.9,10.3,23.7c4.4,6.7,9.7,12,16,15.7c6.2,3.7,13.4,5.3,21.5,4.8c8.5-0.6,17.6-3.8,27.4-9.6
		C506.8,174.6,508.2,172.9,509.3,171z"/>
	<path d="M181.4,390.1c7,0.1,13.8,0.1,20.4,0c0.4-3.8,0.7-9.2,1.1-16.4c0.4-7.1,0.7-15.1,1.1-24c0.4-8.8,0.7-17.9,1.1-27.3
		c0.4-9.4,0.7-18.1,1.1-26.2c0.4-8.1,0.7-15.1,1.1-21c0.4-5.9,0.7-9.7,1.1-11.5l30.2-0.4l1.3-46.8c-6.1-0.1-13.5-0.2-22.4-0.1
		c-8.9,0.1-18,0.2-27.2,0.3c-9.3,0.2-18.1,0.3-26.7,0.5c-8.5,0.1-15.6,0.1-21.1-0.1c-0.4,0.2-0.5,0.7-0.5,1.6c0,0.8,0,2.8,0,5.8
		c0,3-0.1,7.5-0.3,13.5c-0.2,6-0.4,14.2-0.8,24.5l22.7,0.4c0.2,1.9,0.3,3.9,0.3,6.2c0,2.2,0,4.7,0,7.3c0,7.1-0.1,15.3-0.3,24.5
		c-0.2,9.2-0.4,18.8-0.7,28.9c-0.3,10-0.5,20.2-0.7,30.4c-0.2,10.2-0.3,19.9-0.3,29.1C167.8,389.7,174.4,390,181.4,390.1z"/>
	<path d="M285,221.2c-1.3-3.1-3.2-5.6-5.5-7.5c-2.3-1.9-4.9-3.3-7.7-4.1c-2.8-0.8-5.7-1.1-8.5-1c-5.7,0.4-10.8,2.6-15.2,6.5
		c-4.4,4-6.7,9.6-6.7,16.9c0,7.9,2.5,14.2,7.5,18.9c5,4.7,10.9,6.8,17.9,6.3c5.9-0.4,10.7-2.8,14.5-7.2c3.8-4.4,5.7-10.3,5.7-17.8
		C287,228,286.3,224.3,285,221.2z M291.6,349.4c0.1-9.8,0.1-19.6,0.1-29.1c0-9.6,0-19.1,0.1-28.7c0.1-9.6,0.1-19.6,0.1-30.1
		c-0.9,0.1-2.4,0.1-4.7,0c-2.2,0-4.8,0-7.6,0.1c-2.8,0.1-5.9,0.2-9.1,0.4c-3.2,0.1-6.4,0.3-9.6,0.5c-3.9,0.3-7.4,0.6-10.5,1
		c-3.1,0.4-5.4,0.8-6.8,1.3c-0.5-0.7-0.7,0.4-0.5,3.4c0.2,3,0.8,8.8,1.9,17.6c1.1,8.7,2.6,21,4.7,36.8c2,15.8,4.6,36.2,7.6,61.3
		c1.2-0.1,3.3-0.2,6.1-0.3c2.8-0.1,6-0.3,9.3-0.5c3.7-0.3,7.3-0.6,10.8-1c3.5-0.4,6-1,7.6-1.7C291.4,369.6,291.6,359.2,291.6,349.4z
		"/>
	<path d="M339,369.3c0-1.7-0.1-5-0.4-9.8c-0.3-4.9-0.8-11.8-1.5-21c-0.7-9.1-1.5-21.4-2.4-36.9c2.5,3.2,5.2,7.1,8.1,11.8
		c2.9,4.7,6.4,9.5,10.5,14.4c2.3-3,4.6-6.3,6.9-9.9c2.3-3.6,4.5-7.3,6.7-11.1c2.1-3.8,4.2-7.5,6.1-11.1c2-3.6,3.6-6.9,5.1-9.8
		c1.4,14.1,2.8,28.7,4,43.6c1.2,14.9,1.8,30.1,1.6,45.7c1.2,0.1,3.7,0.1,7.5-0.1c3.7-0.2,7.6-0.4,11.7-0.7c3.4-0.2,6.6-0.5,9.6-0.8
		c3-0.3,5.4-0.6,7.2-0.9c-0.9-21.9-1.8-42.8-2.7-62.9c-0.9-20.1-1.6-38-2.1-53.7c-0.5-15.7-0.9-28.6-1.2-38.7
		c-0.3-10.1-0.3-16.3-0.1-18.5c-2.1,0.1-4.7,0.4-7.7,0.7c-3,0.3-6.2,0.6-9.5,0.9c-3.3,0.3-6.7,0.7-10.1,1c-3.5,0.3-6.7,0.6-9.7,0.8
		c-2.1,0.1-4.1,0.3-6,0.4c-1.9,0.1-3.5,0.2-4.9,0.1c-0.7,2.9-1.6,6.5-2.8,10.9c-1.2,4.4-2.4,9-3.7,13.9c-1.3,4.9-2.7,9.7-4,14.3
		c-1.3,4.7-2.5,8.8-3.6,12.2c-1.2-2.5-2.7-6-4.3-10.4c-1.6-4.4-3.2-9-4.9-13.9c-1.7-4.8-3.3-9.5-4.9-14c-1.6-4.5-3-8.2-4.3-11.1
		l-39.5,3c0.2,11,0.4,23.7,0.8,38c0.4,14.3,0.8,29,1.2,44.2c0.4,15.2,0.9,30.2,1.3,45c0.4,14.9,0.9,28.4,1.5,40.5
		c2.7,0,5.4,0,8.1-0.1c2.8-0.1,5.6-0.2,8.4-0.4c3.7-0.3,7.6-0.6,11.5-1.1c3.9-0.5,7.9-1,12-1.7C338.8,371.9,339,371,339,369.3z"/>
	<path d="M459.1,367.2c10.9,0.1,19.8,0.2,26.7,0.4c6.9,0.2,11.8,0.3,14.5,0.4c2.8,0.1,3.1-0.1,0.9-0.5c1.6-11,2.4-21.2,2.4-30.5
		c0-1.7,0-3.3,0-4.9c0-1.6-0.1-3.1-0.3-4.6c-4.8-0.4-10.2-0.6-16.3-0.6c-6.1,0-11.5,0.2-16.3,0.6l2.4-32.8c2.1-0.1,4.5-0.2,7.2-0.2
		c2.7,0,5.3,0.1,7.9,0.3c2.6,0.2,5,0.4,7.2,0.6c2.2,0.2,4,0.3,5.5,0.2c0-2.1,0.2-5.2,0.5-9.3c0.4-4.1,0.7-8.5,1.1-13
		c0.4-4.5,0.6-8.8,0.8-12.8c0.2-4,0-7-0.5-8.8c-1.8-0.4-3.8-0.6-6-0.6c-2.2,0.1-4.5,0.2-6.9,0.3c-2.4,0.2-4.8,0.3-7.1,0.4
		c-2.3,0.1-4.4-0.1-6.1-0.6c-0.2-3.2-0.1-5.6,0.1-7.2c0.3-1.6,0.4-3.4,0.4-5.5c8.4,0.2,15,0.4,19.9,0.7c4.9,0.3,8.6,0.5,11.2,0.6
		c2.6,0.1,4.4,0.1,5.3,0c1-0.1,1.8-0.4,2.5-1l2.1-37.3c0-0.4,0-1.3,0-2.7c0-1.4-0.2-2.1-0.5-2.1c-12.6-0.8-24.6-1.2-35.9-1.3
		c-11.3-0.1-21.1,0.1-29.5,0.4c-8.4,0.3-14.7,0.6-19,1c-4.3,0.4-5.6,0.5-4,0.4c-0.5,6.6-1.2,13.6-1.9,20.9c-0.7,7.4-1,13.7-0.8,18.9
		c1.4,0.3,2.9,0.4,4.5,0.2c1.6-0.1,3.4,0,5.3,0.5c-0.5,4.9-1,11.4-1.5,19.5c-0.4,8.1-0.9,16.5-1.3,25.3c-0.4,8.7-0.9,17.3-1.5,25.5
		c-0.5,8.3-1.1,15-1.6,20.1c-1.6,0.9-2.9,1.2-3.9,1c-1-0.2-2.2,0.2-3.6,1.2c0,1.9-0.1,4.5-0.4,7.8c-0.3,3.3-0.5,6.8-0.7,10.4
		c-0.2,3.7-0.3,7.2-0.4,10.7c-0.1,3.5-0.1,6.2-0.1,8C435.8,367.2,448.3,367.1,459.1,367.2z"/>
</g>
<g id="cinema">
	<rect y="0" width="640" height="437.1"/>
	<path d="M137.3,243.5h-31.8v21.2H84.2v-84.5h21.2v21h31.8v-31.7L116,148.4H73.6l-21.2,21.2v105.7l21.2,20.9H116l21.3-20.9V243.5z"
		/>
	<path d="M186.1,144.2h-31.8v147.8h31.8V144.2z"/>
	<path d="M288,131.5h-31.8v59.2l-21.2-59.2h-31.8v148h31.8v-59.1l21.2,59.1H288V131.5z"/>
	<path d="M379.3,262.5h-42.5v-26.4h42.5v-31.7h-42.5V178h42.5v-31.7H305V294h74.3V262.5z"/>
	<path d="M502.5,133.6h-31.8l-21.2,52.8l-21.3-52.8h-31.8v148h31.8v-52.8l21.3,52.8l21.2-52.8v52.8h31.8V133.6z"/>
	<path d="M548.8,220.3l7.8-45.9l7.9,45.9H548.8z M577.8,125.2h-42.4l-27.5,148h31.6l3.6-21.2h26.7l3.6,21.2h31.8L577.8,125.2z"/>
</g>
<g id="top-and-tail">
	<rect y="0" width="640" height="437.1"/>
	<path d="M109.4,70.5l4.1,55.4l18.7-3l-0.8-11.2l14.7-1.4l2.9,74.5l-13,0.9l2.5,25.4l48.1-4.3l-0.6-26.4l-10.4,0.6L171,99.4
		l12.8-0.9l1.2,14.7l17.9-2.5l-1.7-51.2L109.4,70.5z"/>
	<path d="M284.1,91.8c-0.8-14.4-3.4-24.4-7.9-29.9c-5.7-6.9-16.5-10.2-32.2-9.7c-13.9,0.3-23.6,3.7-29.2,10.1
		c-5.6,6.4-7.9,16.3-7.1,29.5l5.2,76.1c0.9,14.1,3.9,23.5,8.9,28.3c5.8,5.6,16.6,7.5,32.4,5.8c13.5-1.4,22.8-5.5,28-12.1
		c4.6-5.9,6.6-15,5.9-27.4L284.1,91.8z M260,143.8c0.4,9.9-3,14.7-10.3,14.4c-4.8-0.3-8.2-1.2-10.3-2.7c-2.9-2-4.3-5.5-4.5-10.6
		l-1.1-35.9c-0.2-5.8,0.5-9.7,2-11.7c1.5-2,4.9-3.4,10.4-4.1c4.2-0.5,7.3,0.5,9.4,3.2c2.1,2.6,3.2,6.7,3.4,12.2L260,143.8z"/>
	<path d="M362.7,51.7c-6.4-4.3-16.2-6.1-29.5-5.3c-3.8,0.2-7.7,0.6-11.9,1.1l-35.3,4.7l3.8,38.1l12.6-0.5l3.3,76.9l-12.3,0.4
		l2.6,35.6l50.1-4.9l-0.7-36.3l-13.7-0.3l-2.3-18.5c0.7,0,3.5-0.5,8.4-1.5c4.9-1,7.5-1.6,7.9-1.7c19.5-2.4,29-11.9,28.4-28.6
		l-1.4-37.2C372.4,63.3,369.1,55.9,362.7,51.7z M345.3,109.3c0.2,8.5-3.2,12.9-10.1,13.3l-5.6,0.3l-3.1-34l6.9-1.2
		c1.7-0.4,3.1-0.6,4.3-0.7c4.9-0.3,7.4,2.8,7.4,9.1L345.3,109.3z"/>
	<path d="M545.9,87.7c-0.8-9.2-3.5-15.1-8-17.9c-4.6-2.7-13.3-3.9-26.3-3.7l-18,0.3l0.3,5l-22.4,3.2l1.5,20.1l6.3,0.5l1.2,37.6
		l-20.9-61.2l-26.2,0.5l2.6,23.9l5,0.4l2.8,44.4l-3.7,0.4l-0.3-5.6l-4.5,0.2l-9.9-46l5.2-0.3L430,69.7l-42.8-0.5l1.8,20.7l5.2-0.3
		l-5.2,55.7l-4.8,0.3l0.1,18l28.7-2.6l-1.6-16.8l-5.6,0.3l0.9-18.9l12.5-0.7l1.9,11.8l-5.6,0.3l2.5,17.4l19.3,0l1,9.9l24.4-1.3
		l-0.3-26.2l-6.5-0.1l-2.5-45.3l22.6,65.5l17.2-2.2l-2.4-60.9l6.3,0.5l-0.1-5.4l4.1,0.2l1.8,38.2l-6.7-0.1l-0.1,30.3l21.3,0.2
		c12.6,0,21.2-1.8,25.8-5.5c4.6-3.7,6.6-10.2,5.8-19.6L545.9,87.7z M523.4,120.1l-9.1,0.7L512.7,83l8.5,0c3.6,0.1,5.9,0.5,6.9,1.4
		c1,0.8,1.6,2.7,1.7,5.8l1.4,22C531.4,117,528.8,119.7,523.4,120.1L523.4,120.1z M408.3,114.2l3-20.3l5.8,19.8L408.3,114.2z"/>
	<path d="M170.6,234.5l4.1,55.4l18.7-3l-0.8-11.2l14.7-1.4l2.9,74.5l-13,0.9l2.5,25.4l48.1-4.3l-0.6-26.4l-10.4,0.6l-4.6-81.6
		l12.8-0.9l1.2,14.7l17.9-2.5l-1.7-51.2L170.6,234.5z"/>
	<path d="M367.8,338l-7.8,0.4l-18.8-91l8.7-0.5l-0.6-34.6l-70.9,8.6l2.4,32.8l8.7-0.5l-7.9,77.9l-7.6,0.4l1.7,31.1l37.8-3.8
		l0.8-29.5l-9.3,0.5l1.1-19.8l21.2-1.1l4.7,30.9l-9.3,0.5l0.4,28.1l47.9-0.8L367.8,338z M307.8,291.2l5.8-33.9l8.9,33.1L307.8,291.2
		z"/>
	<path d="M371.2,212l4.7,38.1l8.7,0.2l2.6,64.2l-12.9,2.2l4.9,42.4l48.1-5.8l-0.3-33.1l-13.6,1.8l-2.1-70.9l10.4-0.6l0.3-43.3
		L371.2,212z"/>
	<path d="M491.9,286.7l1.1,24.2l-25.5,2.5l-5.2-71.4l15.5-2.6l-0.5-37l-50.5,4.5l3.3,41.6l9-1.1l3.4,74.1l-10.4,0.6l2.8,36.2
		l79.9-2.8l-2.4-71.8L491.9,286.7z"/>
</g>
<g id="super-skin">
	<rect y="0" width="640" height="437.1"/>
	<path d="M145.7,331.5c9.5-3.1,17.5-7.6,24-13.6c6.5-6,11.5-13.3,14.9-22c3.4-8.7,5.1-17.1,5.1-25.4c0-5-0.8-9.7-2.3-14
		c-1.5-4.3-3.8-8-6.9-11.3c-3.1-3.3-7-6.2-11.6-8.9c-4.7-2.6-12.2-5.8-22.6-9.4c-8.2-2.8-13.3-4.9-15.3-6.3c-2-1.4-3.1-3.2-3.1-5.2
		c0-3.5,1.6-6.5,4.8-8.9c3.2-2.4,7.5-3.7,12.9-3.7c18.6,0,32.9,4.4,42.9,13.1h4.9l8.4-39.2c-7.9-3.5-16.3-6.2-25.3-8.1
		c-9-1.9-17.7-2.8-26.2-2.8c-10.3,0-20.1,1.6-29.6,4.8c-9.5,3.2-17.6,7.9-24.5,14c-6.9,6.1-11.9,13-15.1,20.7
		c-3.2,7.6-4.8,15.7-4.8,24.3c0,9.3,2.6,17.4,7.8,24.3c5.2,6.9,13.4,12.6,24.7,17c6.9,2.7,12.3,4.9,16.2,6.8
		c3.9,1.9,6.7,3.5,8.6,5.1c1.9,1.5,2.8,3.4,2.8,5.6c0,7-5.5,10.5-16.5,10.5c-18.3,0-34.8-5.6-49.4-16.7h-5.1l-9,42.2
		c8,4.3,16.5,7.3,25.4,9.1c8.9,1.7,19.6,2.6,32.3,2.6C125.6,336.2,136.2,334.6,145.7,331.5z"/>
	<path d="M301.2,244.1l62.8-75.8h-56.7l-37.4,48.1l10.1-48.1h-52.8L192,334h52.8l11-52l2.9-3l15.8,55h60.6L301.2,244.1z"/>
	<path d="M430.7,291.6h-17.5l17.2-80.9h17.5l9-42.4h-88l-9,42.4h17.4L360,291.6h-17.4l-9,42.4h88L430.7,291.6z"/>
	<path d="M602.4,168.3h-46.8L540.6,239l-16.8-70.7H475L439.8,334h46.7l15.6-73.1l18.5,73.1h46.6L602.4,168.3z"/>
	<path d="M243.7,155.2c4-1.3,7.4-3.2,10.2-5.7c2.7-2.5,4.8-5.6,6.3-9.3c1.4-3.7,2.2-7.3,2.2-10.7c0-2.1-0.3-4.1-1-5.9
		c-0.6-1.8-1.6-3.4-2.9-4.8c-1.3-1.4-2.9-2.6-4.9-3.7c-2-1.1-5.2-2.4-9.6-4c-3.5-1.2-5.6-2.1-6.5-2.7c-0.9-0.6-1.3-1.3-1.3-2.2
		c0-1.5,0.7-2.7,2.1-3.8c1.4-1,3.2-1.6,5.4-1.6c7.9,0,13.9,1.9,18.1,5.6h2.1l3.5-16.6c-3.3-1.5-6.9-2.6-10.7-3.4
		c-3.8-0.8-7.5-1.2-11.1-1.2c-4.3,0-8.5,0.7-12.5,2c-4,1.4-7.5,3.3-10.4,5.9c-2.9,2.6-5,5.5-6.4,8.7c-1.4,3.2-2,6.7-2,10.3
		c0,3.9,1.1,7.3,3.3,10.3c2.2,2.9,5.7,5.3,10.5,7.2c2.9,1.1,5.2,2.1,6.8,2.9c1.6,0.8,2.8,1.5,3.6,2.1c0.8,0.6,1.2,1.4,1.2,2.4
		c0,3-2.3,4.4-7,4.4c-7.8,0-14.7-2.4-20.9-7.1h-2.2l-3.8,17.8c3.4,1.8,7,3.1,10.7,3.8c3.8,0.7,8.3,1.1,13.6,1.1
		C235.2,157.2,239.6,156.5,243.7,155.2z"/>
	<path d="M324.9,129.8l9.2-43.7h-22.7l-9.1,42.8c-0.8,3.9-1.7,6.6-2.8,8.1c-1.1,1.5-2.6,2.3-4.7,2.3c-3,0-4.5-2-4.5-6.1
		c0-1.3,0.2-2.7,0.5-4.2l9.1-42.9h-22.2l-9.3,43.8c-0.4,2-0.6,3.9-0.6,5.7c0,1.9,0.3,4,0.9,6.5c0.6,2.5,2.1,4.9,4.3,7.3
		c2.3,2.4,5.2,4.2,8.7,5.5c3.6,1.3,7.6,2,12.2,2C310.8,157,321.1,147.9,324.9,129.8L324.9,129.8z"/>
	<path d="M376.2,132.8c3.3-1.5,6.1-3.8,8.5-6.7c2.4-3,4.2-6.4,5.5-10.4c1.3-4,1.9-7.7,1.9-10.9c0-6.1-2.3-10.7-6.8-13.8
		c-4.5-3.2-11.1-4.7-19.9-4.7h-22.1l-14.9,70.1h22.3l4.5-21.2h9.9C369.3,135.1,372.9,134.3,376.2,132.8z M369.5,112.6
		c-0.4,1.3-0.9,2.4-1.5,3.2c-0.6,0.8-1.4,1.4-2.4,1.7c-1,0.3-2.8,0.5-5.4,0.5h-1.7l3-14.3h3.6c1.3,0,2.5,0.5,3.5,1.6
		c1,1.1,1.5,2.3,1.5,3.9C370.1,110.2,369.9,111.3,369.5,112.6z"/>
	<path d="M436.4,138.3h-23.3l2.1-10h21.7l3.8-17.8H419l1.3-6.5h23.3l3.8-17.9h-45l-14.9,70.1h45L436.4,138.3z"/>
	<path d="M479.5,113.4c-0.7,1.6-1.6,2.7-3,3.3c-1.3,0.7-3.1,1-5.4,1H469l3-14.3h2.3c1.9,0,3.4,0.5,4.5,1.5c1.1,1,1.7,2.3,1.7,4
		C480.5,110.3,480.2,111.8,479.5,113.4z M489,126.3c4.1-2,7.2-4.1,9.2-6.3c2.1-2.2,3.6-4.9,4.7-8.1c1.1-3.2,1.6-6.2,1.6-8.8
		c0-1.6-0.3-3.4-0.9-5.4c-0.6-2-1.9-4-3.8-5.8c-2-1.9-4.4-3.3-7.4-4.3c-3-1-6.3-1.5-10-1.5h-28.9l-14.9,70.1h22.1l5.2-24.6h1.9
		l6.7,24.6h25.1L489,126.3z"/>
</g>
<g id="drive-by">
	<rect y="0" width="640" height="437.1"/>
	<path d="M220.1,104.8h-30.5l-7.8,57.6l-8-57.6h-31.7l15.5,95.6h46.7L220.1,104.8z"/>
	<path d="M109.7,191.1v23.6H87.3c-10.4,0-16.9,3.1-16.9,11.2v71.5c0,4,1.9,7.5,4.4,9.4c2.5,1.9,7.1,3.5,12.5,3.5h53.4V191.1H109.7z
		 M109.7,285.7h-6.4c-0.2,0-0.8-0.3-0.8-0.5V238c0-0.2,0.6,1.4,0.8,1.4h6.4V285.7z"/>
	<path d="M266.3,196.9c2.5,1.9,7.4,3.5,12.8,3.5H332V81.2h-31v23.6h-21.8c-10.4,0-17.5,3.1-17.5,11.2v71.5
		C261.7,191.4,263.8,195,266.3,196.9z M293.7,128c0-0.2,1.1,1.4,1.4,1.4h5.9v46.3h-5.9c-0.2,0-1.4-0.3-1.4-0.5V128z"/>
	<path d="M356.8,200.4h38.9c10.4,0,13.9-5.1,13.9-12.9v-16.9h-31v4.6c0,0.2,1.4,0.5,1.2,0.5h-7.1c-0.2,0-1.4-0.3-1.4-0.5v-10.8h38.3
		V116c0-8.1-3.4-11.2-13.9-11.2h-38.9c-10.4,0-17.6,3.1-17.6,11.2v71.5C339.2,195.3,346.4,200.4,356.8,200.4z M371.3,128
		c0-0.2,1.2,1.4,1.4,1.4h7.1c0.2,0-1.2-1.6-1.2-1.4v14.8h-7.2V128z"/>
	<path d="M434.1,200.4H473c10.4,0,15.1-5.1,15.1-12.9V116c0-8.1-4.7-11.2-15.1-11.2h-38.9c-10.4,0-16.3,3.1-16.3,11.2v71.5
		C417.8,195.3,423.7,200.4,434.1,200.4z M448.8,128c0-0.2,1,1.4,1.2,1.4h7.1c0.2,0-1-1.6-1-1.4v47.2c0,0.2,1.2,0.5,1,0.5H450
		c-0.2,0-1.2-0.3-1.2-0.5V128z"/>
	<path d="M227.5,310.4h30v-95.6h-30V310.4z"/>
	<path d="M263.6,214.8l15.5,95.6h46.7l15.8-95.6H311l-7.8,57.6l-8-57.6H263.6z"/>
	<path d="M344.4,226v71.5c0,7.9,6.7,12.9,17.1,12.9h38.9c10.4,0,14.3-5,14.3-12.9v-16.9h-31v4.7c0,0.2,1,0.5,0.8,0.5h-7.1
		c-0.2,0-1-0.3-1-0.5v-10.8h38.3V226c0-8.1-3.9-11.2-14.3-11.2h-38.9C351.1,214.8,344.4,217.9,344.4,226z M376.4,238
		c0-0.2,0.8,1.4,1,1.4h7.1c0.2,0-0.8-1.6-0.8-1.4v14.7h-7.2V238z"/>
	<path d="M558.4,214.8v70.9h-7.1c-0.2,0-1.2-0.3-1.2-0.5v-70.4h-32.1v82.7c0,7.9,6.9,12.9,17.3,12.9h23v4.6c0,0.2,0.2,1.6,0,1.6
		H259.7l0,0h-39.2c-0.2,0-2.3-1.4-2.3-1.6v-45.5c0-4.6-2.5-7.2-7.7-7.9c5.1-0.6,7.7-3.2,7.7-7.8V226c0-8.1-3.3-11.2-13.6-11.2H150
		v95.6h30v-39.1h8.7c0.2,0-0.4-0.2-0.4,0v55.8c0,7.9,5.9,13,16.4,13h38.9h15.8h315c10.4,0,14.1-5.2,14.1-13V214.8H558.4z
		 M188.2,251.8c0,0.2,0.6,2,0.4,2H180v-14.4h8.7c0.2,0-0.4-1.6-0.4-1.4V251.8z"/>
	<path d="M510.8,297.5v-28.1c0-4.6-2.5-7.2-7.7-7.9c5.1-0.6,7.7-3.2,7.7-7.8V226c0-8.1-3.7-11.2-14-11.2h-55.2v95.6h55.2
		C507.2,310.4,510.8,305.3,510.8,297.5z M480.8,285.2c0,0.2,0.2,0.5,0,0.5h-8.3v-14.4h8.3c0.2,0,0-0.2,0,0V285.2z M480.8,251.8
		c0,0.2,0.2,2,0,2h-8.3v-14.4h8.3c0.2,0,0-1.6,0-1.4V251.8z"/>
	<path d="M224.4,200.4h31 M254.4,200.4v-16.6v-79h-31v79v16.6H254.4z"/>
</g>
<g id="side-push">
	<rect y="0" width="640" height="437.1"/>
	<path d="M71.4,141.9c5.1-6.2,11.6-10.3,19.5-12.5c7.9-2.1,15.7-1.8,23.2,1c9.9,3.8,16.5,11.5,19.6,23.2l0.9,3.2
		c0.8,3,0.5,5.7-1,8.2c-1.4,2.4-3.7,4.1-6.8,4.9c-3.1,0.8-5.8,0.5-8.3-0.9c-2.5-1.4-4.1-3.6-4.9-6.6l-0.9-3.2
		c-1.4-5.1-4.4-8.3-9-9.3c-2.5-0.6-5-0.6-7.4,0c-2.5,0.7-4.7,1.9-6.5,3.7c-3.4,3.2-4.5,7.4-3.1,12.6c1.4,5.1,4.3,8.1,8.9,9.2
		c2.6,0.6,5.1,0.6,7.5-0.1c7.9-2.1,15.7-1.8,23.2,1c9.9,3.8,16.4,11.5,19.6,23.1c3,11.2,1.4,20.9-4.8,29l18.5-4.9l2,7.4L121,241.8
		l-2-7.4c4.6-1.2,8.8-3.6,12.6-7c7.3-6.6,9.6-15.2,6.7-25.9c-2.8-10.6-9.1-16.9-18.7-18.9c-3.8-0.8-8.7-0.7-14.8,0.3
		c-13.8,2.4-22.3-2.5-25.6-14.7c-1.6-5.9-0.9-11.3,1.9-16.1c2.9-4.8,7.3-8,13.3-9.7c6-1.6,11.4-1,16.3,1.7c4.8,2.8,8.1,7.1,9.6,13
		l0.9,3.2c0.5,1.9,1.7,2.6,3.6,2c1.9-0.5,2.6-1.7,2.1-3.6l-0.9-3.2c-2.9-10.7-9.1-17-18.8-19.1c-5-1.1-9.8-1-14.4,0.2
		c-4.7,1.3-8.9,3.6-12.7,7c-7.3,6.6-9.6,15.2-6.7,25.9c2.8,10.6,9.1,16.9,18.7,18.9c5,1.1,9.8,1,14.5-0.3c5.9-1.6,11.3-1,16.2,1.8
		c4.9,2.8,8.1,7,9.7,12.8c1.6,5.9,1,11.3-1.8,16.1c-2.8,4.8-7.2,8-13.2,9.6c-6,1.6-11.5,1-16.4-1.7c-4.9-2.8-8.1-7.1-9.7-13
		l-1.7-6.5c-0.5-2-1.7-2.7-3.7-2.2c-1.9,0.5-2.6,1.7-2.1,3.7l7.9,29.5c0.8,2.9,0.4,5.6-1.1,8.1c-1.5,2.5-3.7,4.1-6.7,4.9l-3.9,1
		l-2-7.3l3.7-1.1c2-0.6,2.7-1.8,2.3-3.6l-7.9-29.5c-0.8-3.1-0.5-5.8,0.9-8.2c1.4-2.4,3.7-4,6.8-4.8c3.2-0.8,5.9-0.6,8.3,0.8
		c2.4,1.4,4,3.6,4.9,6.7l1.7,6.5c1.4,5.1,4.4,8.3,9,9.3c2.5,0.6,5,0.6,7.4,0c2.5-0.7,4.7-1.9,6.5-3.7c3.4-3.2,4.5-7.4,3.1-12.6
		c-1.4-5.1-4.3-8.1-8.9-9.2c-2.6-0.6-5.1-0.6-7.4,0c-7.9,2.1-15.7,1.8-23.2-1c-10-3.7-16.6-11.4-19.7-23l0,0
		C62.7,160.1,64.6,150.2,71.4,141.9L71.4,141.9z"/>
	<path d="M194,214.4l2.1,7.1l-3.8,1.2c-3,0.9-5.8,0.7-8.3-0.8c-2.5-1.4-4.2-3.6-5-6.6l-21.1-78.6c-0.5-2-1.7-2.7-3.7-2.2
		c-1.9,0.5-2.6,1.7-2.1,3.6l21.1,78.8c0.8,3,0.5,5.7-1,8.2c-1.4,2.4-3.7,4.1-6.8,4.9l-3.9,1l-2-7.3l3.7-1.1c2-0.6,2.7-1.8,2.3-3.6
		l-21.1-78.8c-0.7-2.4-0.5-4.8,0.5-7.2c-2-1.5-3.4-3.4-4-5.8c-0.8-2.8-0.4-5.5,1.1-8.1c1.5-2.6,3.7-4.2,6.6-5c2.9-0.8,5.6-0.4,8.2,1
		c2.6,1.5,4.3,3.6,5,6.4c0.7,2.4,0.5,4.8-0.6,7.1c2.1,1.6,3.4,3.6,4.1,6l21.1,78.8c0.5,1.8,1.7,2.4,3.8,2L194,214.4z M148.5,125
		c0.5,1.9,1.7,2.6,3.6,2c1.9-0.5,2.6-1.7,2.1-3.6c-0.5-1.9-1.7-2.6-3.6-2C148.7,122,148,123.2,148.5,125L148.5,125z"/>
	<path d="M210,97.6c8.4-2.2,17.5-2.4,27.2-0.4c19,3.9,31.2,16,36.6,36.4c5.5,20.5,1,37.1-13.5,49.9c-7.4,6.6-15.4,11-23.8,13.3
		l-13.5,3.6c-2.2,0.6-3,1.8-2.4,3.5c0.6,1.9,2,2.6,4.1,2.1l70.7-18.9l2,7.4l-70.5,18.9c-3.1,0.8-5.8,0.6-8.3-0.8
		c-2.5-1.3-4.2-3.5-5.1-6.5c-0.9-3.2-0.7-5.9,0.8-8.3c1.5-2.4,3.9-4,7.1-4.9l13.3-3.6c7.6-2,14.5-5.8,20.7-11.4
		c12-10.8,15.7-25,11-42.4s-14.9-27.8-30.8-31c-8.2-1.7-16.1-1.6-23.7,0.5l-29.7,7.9l25.4,94.6c0.8,3,0.5,5.7-1,8.2
		c-1.4,2.4-3.7,4.1-6.8,4.9l-3.9,1l-2-7.4l3.7-1c2-0.6,2.7-1.8,2.3-3.6l-27.4-102.1L210,97.6z"/>
	<path d="M344.6,61.6c3.1-0.8,5.8-0.5,8.4,0.8c2.5,1.4,4.2,3.6,5,6.6c0.8,3,0.5,5.7-1,8.2c-1.5,2.5-3.8,4.1-6.8,4.9l-40.1,10.7
		c-2.9,0.8-5,2.3-6.3,4.5c-1.3,2.2-1.6,4.7-0.8,7.5c0.8,2.8,2.2,4.8,4.5,6.1c2.2,1.3,4.8,1.5,7.6,0.7l26.8-7.2
		c3.1-0.8,5.8-0.5,8.3,0.9c2.5,1.4,4.1,3.6,4.9,6.6c0.8,3.1,0.5,5.8-0.9,8.2c-1.4,2.4-3.7,4-6.8,4.8l-26.8,7.2
		c-2.9,0.8-5,2.3-6.3,4.5c-1.3,2.2-1.6,4.7-0.8,7.5c1.7,6.3,5.7,8.6,12.1,6.8l40.1-10.7c3.1-0.8,5.9-0.5,8.4,0.9
		c2.5,1.4,4.2,3.6,5,6.6c0.8,2.9,0.4,5.6-1.1,8.1c-1.5,2.5-3.8,4.2-6.7,5l-46.7,12.5c-2,0.5-2.8,1.7-2.3,3.6c0.5,1.9,1.8,2.5,3.8,2
		l63.9-17.1l2,7.4L328,186.4c-3.1,0.8-5.8,0.5-8.4-0.8c-2.5-1.4-4.2-3.6-5-6.6c-0.8-3-0.5-5.7,1-8.2c1.5-2.5,3.8-4.1,6.8-4.9
		l46.7-12.5c2-0.5,2.8-1.7,2.3-3.5c-0.5-1.9-1.8-2.6-3.8-2.1l-40.1,10.7c-5,1.3-9.5,0.8-13.6-1.5c-4.1-2.3-6.8-6-8.1-10.9
		c-1.3-4.9-0.8-9.4,1.6-13.4c2.4-4,6.1-6.7,11.1-8l26.8-7.2c1.9-0.5,2.6-1.7,2.1-3.6c-0.5-1.8-1.7-2.5-3.6-2l-26.8,7.2
		c-5,1.3-9.5,0.8-13.6-1.5c-4.1-2.3-6.8-5.9-8.1-10.8c-1.3-4.9-0.8-9.3,1.6-13.4c2.4-4,6.1-6.7,11-8.1l40.1-10.7
		c2-0.5,2.8-1.7,2.3-3.6c-0.5-1.9-1.8-2.5-3.8-2l-63.1,16.9l25.4,94.6c0.8,3,0.5,5.7-1,8.2c-1.4,2.4-3.7,4.1-6.8,4.9l-3.9,1l-2-7.4
		l3.7-1c2-0.6,2.7-1.8,2.3-3.6L273.9,80.5L344.6,61.6z"/>
	<path d="M245.1,233.3c7.2-1.9,14.1-1.6,20.8,0.9c9,3.4,14.9,10.4,17.7,20.8c2.8,10.5,1.2,19.4-4.9,26.9
		c-4.6,5.5-10.4,9.3-17.6,11.2l-20.1,5.4c-2,0.5-2.7,1.8-2.2,3.8l11.3,42.1l60.3-16.1l2,7.4l-67.9,18.2l-13.3-49.6
		c-0.8-3-0.5-5.7,1-8.2c1.5-2.5,3.8-4.1,6.8-4.9l20.1-5.4c3.8-1,7.5-3.1,11.1-6.3c6.4-5.7,8.3-13.2,5.8-22.5
		c-2.5-9.3-7.9-14.8-16.3-16.6c-4.4-0.9-8.7-0.8-12.7,0.2l-36.4,9.7l25.4,94.6c0.8,3,0.5,5.7-1,8.2c-1.4,2.4-3.7,4.1-6.8,4.9l-3.9,1
		l-2-7.4l3.7-1c2-0.6,2.7-1.8,2.3-3.6l-27.4-102.1L245.1,233.3z"/>
	<path d="M359.7,205.8c1.5-2.5,3.7-4.1,6.7-4.9c3.1-0.8,5.8-0.5,8.3,0.9c2.5,1.4,4.1,3.6,4.9,6.6l24.7,91.9c0.5,1.8,1.7,2.5,3.8,2
		l3.8-0.9l2.1,7.3l-3.9,0.9c-3.1,0.8-5.8,0.5-8.4-0.8c-2.5-1.4-4.2-3.6-5-6.6l-24.6-91.8c-0.5-1.9-1.7-2.5-3.7-2
		c-1.9,0.5-2.5,1.7-2,3.6l15.8,59c1.9,6.9,1.5,13.8-1.2,20.6c-3.5,8.9-10.5,14.7-21.2,17.6c-10.7,2.9-19.8,1.3-27.3-4.6
		c-5.7-4.5-9.5-10.2-11.4-17.3l-15.8-59c-0.5-1.9-1.7-2.6-3.6-2c-1.9,0.5-2.6,1.7-2.1,3.6l24.6,91.8c0.8,3,0.5,5.7-1,8.2
		c-1.4,2.4-3.7,4.1-6.8,4.9l-3.9,1l-2-7.3l3.7-1.1c2-0.6,2.7-1.8,2.3-3.6l-24.6-91.8c-0.8-2.9-0.4-5.6,1.1-8.1
		c1.5-2.5,3.7-4.1,6.7-4.9c3.1-0.8,5.8-0.5,8.3,0.9c2.5,1.4,4.1,3.6,4.9,6.6l15.8,59c1,3.8,3.1,7.5,6.3,10.9
		c5.8,6.2,13.4,8,22.8,5.5c9.5-2.5,15.1-7.9,17-16.1c1-4.4,0.9-8.6-0.2-12.6l-15.8-59C357.8,211,358.2,208.3,359.7,205.8z"/>
	<path d="M404.8,197.8c5.1-6.2,11.6-10.3,19.5-12.5c7.9-2.1,15.7-1.8,23.2,1c9.9,3.8,16.4,11.5,19.6,23.2l0.9,3.2
		c0.8,3,0.5,5.7-1,8.2c-1.4,2.4-3.7,4.1-6.8,4.9c-3.1,0.8-5.8,0.5-8.3-0.9c-2.5-1.4-4.1-3.6-4.9-6.6l-0.9-3.2
		c-1.4-5.1-4.4-8.3-9-9.3c-2.5-0.6-5-0.6-7.4,0c-2.5,0.7-4.7,1.9-6.5,3.7c-3.4,3.2-4.5,7.4-3.1,12.6c1.4,5.1,4.3,8.1,8.9,9.2
		c2.6,0.6,5.1,0.6,7.5-0.1c7.9-2.1,15.7-1.8,23.2,1c9.9,3.8,16.4,11.5,19.6,23.1c3,11.2,1.4,20.9-4.8,29l18.5-4.9l2,7.4l-40.6,10.8
		l-2-7.4c4.6-1.2,8.8-3.6,12.6-7c7.3-6.6,9.6-15.2,6.7-25.9c-2.8-10.6-9.1-16.9-18.7-18.9c-3.8-0.8-8.7-0.7-14.8,0.3
		c-13.8,2.4-22.3-2.5-25.6-14.7c-1.6-5.9-0.9-11.3,1.9-16.1c2.9-4.8,7.3-8,13.3-9.7c6-1.6,11.4-1,16.3,1.7c4.8,2.8,8,7.1,9.6,13
		l0.9,3.2c0.5,1.9,1.7,2.6,3.6,2c1.9-0.5,2.6-1.7,2.1-3.6l-0.9-3.2c-2.9-10.7-9.1-17-18.8-19.1c-5-1.1-9.8-1-14.4,0.2
		c-4.7,1.3-8.9,3.6-12.7,7c-7.3,6.6-9.6,15.2-6.7,25.9c2.8,10.6,9.1,16.9,18.7,18.9c5,1.1,9.8,1,14.5-0.3c5.9-1.6,11.3-1,16.2,1.8
		c4.9,2.8,8.1,7,9.7,12.8c1.6,5.9,1,11.3-1.8,16.1c-2.8,4.8-7.2,8-13.2,9.6s-11.5,1-16.4-1.7c-4.9-2.8-8.1-7.1-9.7-13l-1.7-6.5
		c-0.5-2-1.7-2.7-3.7-2.2c-1.9,0.5-2.6,1.7-2.1,3.7l7.9,29.5c0.8,2.9,0.4,5.6-1.1,8.1c-1.5,2.5-3.7,4.1-6.7,4.9l-3.9,1l-2-7.3
		l3.7-1.1c2-0.6,2.7-1.8,2.3-3.6l-7.9-29.5c-0.8-3.1-0.5-5.8,0.9-8.2c1.4-2.4,3.7-4,6.8-4.8c3.2-0.8,5.9-0.6,8.3,0.8
		c2.4,1.4,4,3.6,4.9,6.7l1.7,6.5c1.4,5.1,4.4,8.3,9,9.3c2.5,0.6,5,0.6,7.4,0c2.5-0.7,4.7-1.9,6.5-3.7c3.4-3.2,4.5-7.4,3.1-12.6
		c-1.4-5.1-4.3-8.1-8.9-9.2c-2.6-0.6-5.1-0.6-7.4,0c-7.9,2.1-15.7,1.8-23.2-1c-10-3.7-16.6-11.4-19.7-23l0,0
		C396.2,216,398,206,404.8,197.8L404.8,197.8z"/>
	<path d="M542.4,156.9c1.5-2.5,3.7-4.1,6.7-4.9c3.1-0.8,5.8-0.5,8.3,0.9c2.5,1.4,4.1,3.6,4.9,6.6l24.6,91.8c0.5,1.9,1.8,2.5,3.8,2
		l3.7-1l2,7.4l-3.7,1c-3.1,0.8-5.8,0.5-8.3-0.9c-2.5-1.4-4.1-3.6-4.9-6.6l-24.6-91.8c-0.5-1.9-1.7-2.5-3.7-2c-1.9,0.5-2.5,1.7-2,3.6
		l8.8,32.9c1.3,5,0.8,9.4-1.6,13.4c-2.4,3.9-6.1,6.6-11.2,8l-26.9,7.2c-5.1,1.4-9.6,0.9-13.7-1.3c-4-2.2-6.7-5.8-8.1-10.8l-8.8-32.9
		c-0.5-1.9-1.7-2.6-3.6-2c-1.9,0.5-2.6,1.7-2.1,3.6l24.6,91.8c0.8,3,0.5,5.7-1,8.2c-1.4,2.4-3.7,4.1-6.8,4.9l-3.9,1l-2-7.3l3.7-1.1
		c2-0.6,2.7-1.8,2.3-3.6l-24.6-91.8c-0.8-3-0.5-5.7,1-8.2c1.4-2.4,3.7-4.1,6.8-4.9c3.1-0.8,5.8-0.5,8.3,0.9c2.5,1.4,4.1,3.6,4.9,6.6
		l8.8,32.7c0.8,2.9,2.3,5,4.4,6.3c2.2,1.3,4.8,1.5,7.7,0.7l26.8-7.2c2.9-0.8,4.9-2.3,6.3-4.5c1.3-2.2,1.6-4.7,0.8-7.5l-8.8-32.9
		C540.6,162.1,540.9,159.4,542.4,156.9z"/>
</g>
</svg>
