<?xml version="1.0" encoding="utf-8"?>
<!-- Generator: Adobe Illustrator 20.1.0, SVG Export Plug-In . SVG Version: 6.00 Build 0)  -->
<svg version="1.1" id="metric-icons" xmlns="http://www.w3.org/2000/svg" xmlns:xlink="http://www.w3.org/1999/xlink" x="0px"
	 y="0px" viewBox="0 0 300 300" style="enable-background:new 0 0 300 300;" xml:space="preserve">
<g id="ctr">
	<path d="M93.2,177c8.3,8.9,16.4,16.2,23.2,14.9c4.7-0.9,4.6-6.4,4.6-6.4s-2.3-84,0-123.5c0.7-12.7,21.2-11.4,22.7-1.4
		c1.8,12.7,5,77.2,5,77.2s6.4-0.9,9.6-1.4c3.2-0.5,7.3,0.9,7.3,0.9s58.5,16,63.1,20.5s2.7,7.4,2.7,7.4s1.8,49.8,0,60.8
		s-17.9,29.1-17.9,29.1H112.6c0,0-22.8-25.6-35-48.3s-12.1-39.5-3.3-41.1C83.1,164.3,89.7,173.2,93.2,177z M212.7,265.5H112.3V286
		h100.4L212.7,265.5L212.7,265.5z M156.4,106.5c0,0,25.8-13.6,25.8-42.9s-17-53.3-51.7-53.3S77.7,33.2,77.7,63.5s33,46.1,33,46.1
		l0.5-53.2c0,0,1.5-12,20.8-12s21,12.9,21,12.9l2.7,49.3L156.4,106.5z"/>
</g>
<g id="viewability">
	<path d="M150.2,62.8C63.1,62.8,16,150,16,150s42.7,87.2,134.2,87.2c89,0,130.8-87.2,130.8-87.2S237.4,62.8,150.2,62.8z
		 M150.2,211.9c-34.2,0-61.9-27.7-61.9-61.9s27.7-61.9,61.9-61.9s61.9,27.7,61.9,61.9S184.4,211.9,150.2,211.9z M150.2,187
		c-20.5,0-37-16.6-37-37s16.6-37,37-37s37,16.6,37,37S170.7,187,150.2,187z"/>
</g>
<g id="time-in-view">
	<path d="M150,66.2c-59.1,0-107,47.9-107,107s47.9,107,107,107s107-47.9,107-107S209.1,66.2,150,66.2z M146,174V92.8
		c0,0,2.4-0.1,3.3-0.1c44.4,0,80.8,36.3,80.8,80.7c0,0.1,0.4,0.6,0.4,0.6H146z M200.8,68.2l7.3-8.9c3.2-4,9.1-4.5,13.1-1.3
		l17.6,14.4c4,3.2,4.5,9.1,1.3,13.1l-5.8,7.1C224.7,82.6,213.4,74.3,200.8,68.2z M181.9,34c0,7.1-5.8,13-13,13H161v12h-27V47h-5.7
		c-7.1,0-13-5.9-13-13s5.8-13,13-13h40.6C176.1,21,181.9,26.9,181.9,34z"/>
</g>
<g id="replay-rate">
	<path d="M256.1,127.8c0,5-4.1,9.1-9.1,9.1h-63.4c-3.7,0-6.9-2.3-8.4-5.7c-1.4-3.3-0.7-7.2,2-9.8l19.5-19.5
		c-13.3-12.3-30.9-19.4-49.4-19.4c-39.9,0-72.5,32.6-72.5,72.5s32.6,72.5,72.5,72.5c22.5,0,43.3-10.2,57.2-28.2c0.7-1,2-1.6,3.3-1.7
		c1.3,0,2.5,0.4,3.5,1.3l19.4,19.5c1.7,1.6,1.7,4.2,0.3,6.1c-20.7,24.9-51.2,39.2-83.7,39.2c-59.9,0-108.7-48.8-108.7-108.7
		S87.5,46.3,147.4,46.3c27.9,0,54.9,11.2,74.9,30L240.7,58c2.5-2.7,6.5-3.4,9.9-2c3.3,1.4,5.5,4.7,5.5,8.4L256.1,127.8L256.1,127.8z
		"/>
</g>
<g id="impressions">
	<path d="M82.6,185.4H64.4l6.2-22.7c1.7-1.4,4.1-2.1,6.5-2.1h15.5h32.6V121c0-4.8-2.6-9.7-5.6-15.4c-4.1-7.7-8.7-16.4-8.7-28.1
		c0-21.4,17.4-38.8,38.8-38.8s38.8,17.4,38.8,38.8c0,11.7-4.6,20.4-8.7,28.1c-3,5.7-5.6,10.6-5.6,15.3v39.5H207h15.5
		c2.5,0,4.8,0.8,6.5,2.1l6.2,22.7H217H82.6V185.4z M249.6,196.8H50c-7.6,0-13.9,6.2-13.9,13.9v27.4c0,7.6,6.2,13.9,13.9,13.9h199.6
		c7.6,0,13.9-6.2,13.9-13.9v-27.4C263.5,203,257.2,196.8,249.6,196.8z"/>
</g>
<g id="trending">
	<path d="M181.9,20.7c0,0,12.4,99.3-24.8,99.3S95,70.3,95,70.3S32.9,120,45.3,194.4s74.5,86.9,111.7,86.9s99.3-37.2,99.3-111.7
		S181.9,20.7,181.9,20.7z M199.9,209.4c-14.9,27.5-70.8,42.4-86.9,15.8c-16.2-26.8,9.9-54,41.6-62.4c31.6-8.4,46.5-29.8,46.5-29.8
		S225.4,162.3,199.9,209.4z"/>
</g>
<g id="clicks">
	<polygon points="217.4,221.8 169.6,158.1 212.1,140 82.6,65.2 82.3,65.4 112.3,211.9 142.7,177 188.1,242.7 	"/>
</g>
<g id="engagement-rate">
	<path d="M150,261c-61.2,0-111-49.8-111-111C39,88.8,88.8,39,150,39c61.2,0,111,49.8,111,111C261,211.2,211.2,261,150,261z M150,48
		C93.8,48,48,93.8,48,150s45.8,102,102,102s102-45.8,102-102S206.2,48,150,48z M124.3,210.4l82.4-60.4l-82.4-60.4V210.4z"/>
</g>
</svg>
