<?xml version="1.0" encoding="utf-8"?>
<!-- Generator: Adobe Illustrator 20.1.0, SVG Export Plug-In . SVG Version: 6.00 Build 0)  -->
<svg version="1.1" id="playground-logo" xmlns="http://www.w3.org/2000/svg" xmlns:xlink="http://www.w3.org/1999/xlink" x="0px"
	 y="0px" viewBox="0 0 610 180" style="enable-background:new 0 0 610 180;" xml:space="preserve">
<g id="playground">
	<g id="xyz">
		<path d="M528.8,47.9c0.2,0.3,0.2,0.7-0.4,0.7h-2.7c-0.5,0-0.8-0.3-1.1-0.7l-5.5-9.3l-5.2,9.3c-0.2,0.3-0.5,0.7-1,0.7h-2.5
			c-0.5,0-0.6-0.4-0.3-0.8l7.2-12.6l-7-11.9c-0.3-0.4-0.2-0.8,0.3-0.8h2.7c0.5,0,0.8,0.3,1.1,0.7l5.2,8.9l5-8.9
			c0.2-0.4,0.5-0.7,1-0.7h2.5c0.5,0,0.6,0.3,0.3,0.7l-7.1,12.1L528.8,47.9z"/>
		<path d="M539.8,33.4c0.2,0.5,0.6,1.6,0.6,1.7c0-0.1,0.3-1.2,0.6-1.7l5.1-10.2c0.2-0.4,0.4-0.7,0.8-0.7h2.4c0.5,0,0.8,0.2,0.5,0.7
			l-7.6,15.1V48c0,0.5-0.2,0.7-0.7,0.7h-2.4c-0.5,0-0.7-0.2-0.7-0.7v-9.2l-7.6-15.5c-0.2-0.5,0-0.7,0.5-0.7h2.7
			c0.5,0,0.7,0.3,0.9,0.7L539.8,33.4z"/>
		<path d="M567.2,22.5c0.5,0,0.8,0.2,0.8,0.7v1.7c0,0.3-0.1,0.5-0.2,0.7l-11.1,20h11.1c0.5,0,0.7,0.2,0.7,0.7v1.8
			c0,0.5-0.2,0.7-0.7,0.7H553c-0.5,0-0.7-0.2-0.7-0.7v-1.8c0-0.3,0.1-0.4,0.2-0.7l10.9-19.8h-9.7c-0.5,0-0.7-0.2-0.7-0.7v-1.7
			c0-0.5,0.2-0.7,0.7-0.7h13.5V22.5z"/>
	</g>
	<path d="M70.5,97.7v20.6c0,1.2-0.4,1.8-1.6,1.8h-5.4c-1.1,0-1.6-0.5-1.6-1.8V61.7c0-1.2,0.4-1.8,1.6-1.8h17.9
		c15.2,0,20.1,6.4,20.1,13.6V84c0,7.2-4.9,13.6-20.1,13.6L70.5,97.7L70.5,97.7z M70.5,67.3v23.1h11c8,0,11.5-2.9,11.5-7.7V75
		c0-4.8-3.5-7.7-11.5-7.7H70.5z"/>
	<path d="M121.1,112.7h22.6c1.1,0,1.7,0.4,1.7,1.6v4.1c0,1.2-0.5,1.7-1.7,1.7h-29.9c-1,0-1.4-0.6-1.4-1.8V61.7
		c0-1.2,0.4-1.8,1.7-1.8h5.4c1.1,0,1.6,0.5,1.6,1.8C121.1,61.7,121.1,112.7,121.1,112.7z"/>
	<path d="M186.9,120H151c-1.1,0-1.6-0.6-1.2-1.7l14.6-56.7c0.4-1.1,1-1.7,2.1-1.7h10.6c1.1,0,1.8,0.5,2.1,1.7l14.6,56.7
		c0.4,1.1-0.1,1.7-1.3,1.7H186.9z"/>
	<path d="M213.2,85c0.5,1.2,1.3,3.6,1.4,4c0-0.2,0.8-2.8,1.4-4l11.7-23.3c0.4-0.9,0.9-1.7,1.9-1.7h5.4c1.1,0,1.8,0.5,1.1,1.7
		l-17.3,34.5v22.2c0,1.1-0.4,1.7-1.6,1.7h-5.4c-1.2,0-1.7-0.5-1.7-1.7V97.2l-17.5-35.5c-0.5-1.1,0-1.7,1.2-1.7h6.1
		c1.1,0,1.5,0.6,2,1.7L213.2,85z"/>
	<path d="M280.2,90c1.1,0,1.7,0.4,1.7,1.6v15.5c0,7.2-4.3,13.6-19.5,13.6c-15.2,0-19.5-6.4-19.5-13.6V72.9c0-7.2,4.3-13.6,19.5-13.6
		c15.2,0,19.5,6.4,19.5,13.6v3.9c0,1.1-0.4,1.7-1.6,1.7h-5.1c-1.2,0-1.7-0.5-1.7-1.7v-2.5c0-4.8-3.1-7.7-11-7.7c-8,0-11,2.9-11,7.7
		v31.5c0,4.8,3,7.7,11,7.7c7.9,0,11-2.8,11-7.6v-8.5H263c-1.1,0-1.7-0.4-1.7-1.7v-4.1c0-1.1,0.5-1.6,1.7-1.6
		C263,90,280.2,90,280.2,90z"/>
	<path d="M303,96.3v22c0,1.2-0.4,1.8-1.6,1.8H296c-1.1,0-1.6-0.5-1.6-1.8V61.7c0-1.2,0.4-1.8,1.6-1.8h18c15.2,0,20.1,6.4,20.1,13.6
		v9.2c0,5.4-2.7,10.2-10.3,12.4l10.6,23.1c0.4,1.1-0.4,1.8-1.6,1.8h-5.3c-1.2,0-1.4-0.7-1.9-1.8l-10-22H314h-11V96.3z M303,67.3
		v21.6h11c8,0,11.5-2.8,11.5-7.7V75c0-4.8-3.5-7.7-11.5-7.7H303z"/>
	<path d="M346,72.9c0-7.2,4.9-13.6,20.1-13.6s20.1,6.4,20.1,13.6v34.3c0,7.2-4.9,13.6-20.1,13.6c-15.1,0-20.1-6.4-20.1-13.6V72.9z
		 M377.5,74.3c0-4.8-3.5-7.7-11.5-7.7c-7.9,0-11.4,2.9-11.4,7.7v31.5c0,4.8,3.5,7.7,11.4,7.7c8,0,11.5-2.9,11.5-7.7V74.3z"/>
	<path d="M407.8,105.7c0,4.8,3.5,7.7,11.4,7.7c8,0,11.6-2.9,11.6-7.7v-44c0-1.2,0.4-1.8,1.6-1.8h5.4c1.2,0,1.6,0.5,1.6,1.8v45.4
		c0,7.2-4.9,13.6-20.1,13.6c-15.1,0-20.1-6.4-20.1-13.6V61.7c0-1.2,0.5-1.8,1.7-1.8h5.4c1.1,0,1.6,0.5,1.6,1.8v44H407.8z"/>
	<path d="M493.4,118.4c0,1.1-0.4,1.7-1.6,1.7h-4.9c-0.9,0-1.2-0.3-1.6-0.8l-20.8-36.4c-1.9-3.3-3-6-3.2-6.4v41.9
		c0,1.1-0.4,1.7-1.6,1.7h-4.9c-1.1,0-1.6-0.5-1.6-1.7V61.6c0-1.1,0.4-1.7,1.6-1.7h4.9c0.7,0,1.1,0.3,1.4,0.7l21.3,37.2
		c1.2,2.1,2.7,5.7,2.7,5.7V61.6c0-1.1,0.5-1.7,1.7-1.7h4.9c1.2,0,1.6,0.5,1.6,1.7v56.8H493.4z"/>
	<path d="M509.3,120c-1.1,0-1.4-0.6-1.4-1.8V61.7c0-1.2,0.4-1.8,1.6-1.8H528c15.1,0,20.1,6.4,20.1,13.6v32.9c0,7.2-5,13.6-20.1,13.6
		H509.3z M516.5,67.3v45.4H528c8,0,11.5-2.9,11.5-7.7V75c0-4.8-3.5-7.7-11.5-7.7H516.5z"/>
</g>
</svg>
